<?xml version="1.0" encoding="utf-8"?>
<!-- Generator: Adobe Illustrator 17.0.0, SVG Export Plug-In . SVG Version: 6.00 Build 0)  -->
<!DOCTYPE svg PUBLIC "-//W3C//DTD SVG 1.1//EN" "http://www.w3.org/Graphics/SVG/1.1/DTD/svg11.dtd">
<svg version="1.1" id="Camada_1" xmlns="http://www.w3.org/2000/svg" xmlns:xlink="http://www.w3.org/1999/xlink" x="0px" y="0px"
	 width="1280px" height="800px" viewBox="0 0 1280 800" style="enable-background:new 0 0 1280 800;" xml:space="preserve">
<style type="text/css">
	.st0{fill-rule:evenodd;clip-rule:evenodd;fill:#034EA1;}
	.st1{fill-rule:evenodd;clip-rule:evenodd;fill:#EC1C24;}
</style>
<g>
	<path class="st0" d="M1220,323.2h60.7v6.4h-41.5v39.5h39v6.4h-39v42.5h42.1v6.7H1220V323.2z M1143.8,418.4h12.5
		c12.8,0,22.1-3.7,28-11.2c5.9-7.5,8.9-17.4,8.9-29.9c0-2.8-0.1-5-0.2-6.4c-0.8-12.3-4.4-22.3-10.9-29.9c-6.5-7.6-15-11.4-25.7-11.4
		h-12.7V418.4z M1124.4,323.2h33.4c18,0,32.1,5.8,42.5,17.4c8,8.9,12,20.9,12,35.8c0,11.9-2.8,21.8-8.4,29.5
		c-4.2,6-9.8,10.7-16.8,14c-7,3.3-15.8,5-26.4,5h-36.3V323.2z M1056.4,391.7h30.1l-15.2-37.3L1056.4,391.7z M1034.6,424.8
		l41.6-104.5h0.3l43.4,104.5h-20.1l-10.5-26.7h-35.7l-10.3,26.7H1034.6z M968.8,418.4h12.5c12.8,0,22.1-3.7,28-11.2
		c5.9-7.5,8.9-17.4,8.9-29.9c0-2.8-0.1-5-0.2-6.4c-0.8-12.3-4.4-22.3-10.9-29.9c-6.5-7.6-15-11.4-25.7-11.4h-12.7V418.4z
		 M949.4,323.2h33.4c18,0,32.1,5.8,42.5,17.4c8,8.9,12,20.9,12,35.8c0,11.9-2.8,21.8-8.4,29.5c-4.2,6-9.8,10.7-16.8,14
		c-7,3.3-15.8,5-26.4,5h-36.3V323.2z M886.2,323.2h19.1v93.7h41.2v8h-60.3V323.2z M814.9,323.2V396c0,6.3,2.2,11.3,6.5,15.1
		c4.4,3.8,9.8,5.9,16.4,6.4c5.3-0.3,9.9-1.4,14-3.3c3.3-1.9,5.8-4.3,7.3-7c1.5-2.8,2.3-6.4,2.3-10.8v-73.1h8.4v75
		c0,6.4-1.6,11.8-4.7,16.2c-3.1,4.4-7.4,7.8-13,10c-5.5,2.2-11.9,3.3-19.1,3.3c-6.2,0-11.6-0.8-16.4-2.3c-4.7-1.5-8.7-3.8-11.8-6.6
		c-3.1-2.9-5.5-6.4-7-10.5c-1.5-4-2.3-8.6-2.3-13.7v-71.4H814.9z M782.1,345.4c-4.8-6.2-9.4-10.9-13.8-13.9c-4.4-3-9.3-4.6-14.7-4.8
		c-8.7,0-15.9,2-21.7,5.9c-5.8,3.9-10,9.2-12.8,15.8c-2.8,6.6-4.3,14.1-4.5,22.4c0,6.9,0.7,13.3,2.2,19.3c1.5,6,3.8,11.2,6.9,15.8
		c3.1,4.5,7,7.9,11.7,10.3c4.6,2.2,9.5,3.4,14.6,3.8c7.3-0.2,14.2-2.2,20.5-6.3c6.4-4.1,11-9.5,13.8-16.4l6.9,3.5
		c-3,6.9-8.2,13.1-15.7,18.7c-7.5,5.5-16.8,8.3-28.1,8.3c-2.6,0-6-0.2-10.1-0.7c-6.2-1-11.9-3.1-17.3-6.2c-5.3-3.2-10-7.1-13.9-12
		c-3.9-4.8-7-10.2-9.1-16.1c-2.2-5.9-3.3-12-3.4-18.4c0.3-7.7,2-15.1,5.1-22.2c3.1-7.1,7.5-13.2,13.2-18.3c5.7-5.2,12.3-8.8,19.9-11
		c5.2-1.7,10.6-2.5,16-2.5c16.3,0,29.6,7,39.9,20.9L782.1,345.4z M632.4,391.7h30.1l-15.2-37.3L632.4,391.7z M610.6,424.8
		l41.6-104.5h0.3L696,424.8h-20.1l-10.5-26.7h-35.7l-10.3,26.7H610.6z M556,323.2H615v6.4h-39.6v39.5h36.3v6.4h-36.3v49.3H556V323.2
		z"/>
	<path class="st0" d="M1200.8,481.4c-10.5,0-19.4,2.5-26.8,7.4c-7.4,4.9-13.2,13-17.5,24.4c-4.2,11.4-6.6,26.5-7.1,45.2
		c0,21.8,4.1,39.8,12.2,54.1c8.1,14.3,19.7,21.6,35,21.8c1.7-0.3,3.8-0.5,6.4-0.5c10.4-1.1,18.9-5.3,25.6-12.4
		c6.7-7.2,11.5-16.2,14.6-27.1c3-10.9,4.5-22.7,4.5-35.5c-0.2-13.5-1.7-25.9-4.4-37.3c-2.7-11.4-7.5-20.9-14.4-28.5
		C1221.9,485.5,1212.6,481.6,1200.8,481.4z M1202,471c18.3,0.8,33.3,5.8,45.1,15.1c11.7,9.3,20.2,20.1,25.5,32.5
		c5.3,12.4,8.2,24,8.6,34.7c0,15.4-2.4,28.9-7.1,40.5c-4.8,11.6-11.2,21.2-19.2,28.7c-8,7.5-16.6,13.1-25.9,16.7
		c-9.3,3.6-18.5,5.4-27.7,5.6c-15.2,0-29.2-3.3-42-10.1c-12.8-6.7-23-16.4-30.7-29c-7.7-12.7-11.8-27.5-12.5-44.5
		c0-11.7,1.8-22.9,5.5-33.7c3.6-10.8,9-20.5,16.1-29c7.1-8.6,15.9-15.3,26.2-20.2c10.3-4.9,21.9-7.3,34.7-7.3H1202z M1107.4,511.6
		c-7.8-10.1-15.3-17.6-22.4-22.5c-7.2-4.9-15.1-7.5-23.8-7.7c-14.1,0-25.8,3.2-35.1,9.5c-9.3,6.4-16.2,14.9-20.7,25.6
		c-4.5,10.8-6.9,22.9-7.3,36.3c0,11.1,1.2,21.5,3.5,31.2c2.4,9.7,6.1,18.2,11.1,25.5c5,7.3,11.4,12.9,18.9,16.7
		c7.4,3.5,15.3,5.5,23.6,6.1c11.9-0.3,23-3.6,33.3-10.2c10.3-6.6,17.7-15.4,22.3-26.6l11.1,5.6c-4.8,11.1-13.2,21.2-25.3,30.2
		c-12.1,9-27.2,13.5-45.5,13.5c-4.2,0-9.7-0.3-16.4-1.1c-10-1.7-19.3-5-28-10.1c-8.6-5.1-16.2-11.6-22.5-19.4
		c-6.4-7.8-11.3-16.5-14.8-26c-3.5-9.5-5.3-19.4-5.5-29.7c0.5-12.5,3.3-24.5,8.3-35.9c5-11.4,12.1-21.3,21.3-29.6
		c9.2-8.4,20-14.3,32.2-17.7c8.5-2.8,17.1-4.1,25.9-4.1c26.4,0,48,11.3,64.6,33.8L1107.4,511.6z M852.7,619.4l11.3-8.9
		c4.2,6.5,8.2,11.3,12,14.3c3.8,3.1,8.4,5,13.6,6c1.4,0.3,2.7,0.5,4.1,0.6c1.4,0.2,2.5,0.3,3.3,0.5c8.3-0.3,15.4-2.7,21.5-7.4
		c6-4.7,9.2-10.8,9.6-18.5c0-10.8-2.9-19-8.9-24.7c-5.9-5.7-14.4-10.3-25.5-14c-8.8-3.1-16.2-6.5-22.3-10c-6-3.6-11-8.5-14.9-14.8
		c-3.9-6.3-5.9-14.3-5.9-23.9c0.3-9.6,3-18,8.2-25.3c5.2-7.2,12.1-12.8,20.6-16.6c8.6-3.8,17.9-5.7,28-5.7c6.5,0.3,12.9,1.7,19,4.2
		c6.2,2.5,11.6,5.9,16.4,10.2c4.7,4.3,8.4,9.2,10.8,14.8l-10.5,7.1c-7-15-18.2-22.8-33.6-23.4c-7.6,0-14.1,2.3-19.3,7
		c-5.3,4.7-8.1,11.1-8.6,19.1c0,7.3,1.9,13,5.6,17.1c3.7,4.1,10.1,8.3,19.2,12.6c6.7,2.8,13.1,5.6,19.3,8.4
		c6.2,2.7,11.8,5.9,16.8,9.5c5,3.6,9.1,8.5,12.4,14.6c3.2,6.1,4.9,13.6,4.9,22.7c-0.1,7.4-1.8,14.1-5,20.4
		c-3.2,6.2-7.5,11.6-13,15.9c-5.4,4.4-11.5,7.7-18.3,10c-6.8,2.3-13.7,3.5-20.9,3.5c-10.3,0-19.9-2.2-28.9-6.5
		C864.8,634,857.8,627.7,852.7,619.4z M766.3,481.4c-10.5,0-19.4,2.5-26.8,7.4c-7.4,4.9-13.2,13-17.5,24.4
		c-4.2,11.4-6.6,26.5-7.1,45.2c0,21.8,4.1,39.8,12.2,54.1c8.1,14.3,19.7,21.6,35,21.8c1.7-0.3,3.8-0.5,6.4-0.5
		c10.4-1.1,18.9-5.3,25.6-12.4c6.7-7.2,11.5-16.2,14.6-27.1c3-10.9,4.5-22.7,4.5-35.5c-0.2-13.5-1.7-25.9-4.4-37.3
		c-2.7-11.4-7.5-20.9-14.4-28.5C787.4,485.5,778.1,481.6,766.3,481.4z M767.5,471c18.3,0.8,33.3,5.8,45.1,15.1
		c11.7,9.3,20.2,20.1,25.5,32.5c5.3,12.4,8.2,24,8.6,34.7c0,15.4-2.4,28.9-7.1,40.5c-4.8,11.6-11.2,21.2-19.2,28.7
		c-8,7.5-16.6,13.1-25.9,16.7c-9.3,3.6-18.5,5.4-27.7,5.6c-15.2,0-29.2-3.3-42-10.1c-12.8-6.7-23-16.4-30.7-29
		c-7.7-12.7-11.8-27.5-12.5-44.5c0-11.7,1.8-22.9,5.5-33.7c3.6-10.8,9-20.5,16.1-29c7.1-8.6,15.9-15.3,26.2-20.2
		c10.3-4.9,21.9-7.3,34.8-7.3H767.5z M587.2,629.3h24.4c24.1,0,36.2-10.1,36.2-30.3c0-6.6-1.3-12.9-3.8-18.9
		c-2.5-6.1-6.3-10.9-11.4-14.6c-5.1-3.7-11.2-5.6-18.4-5.6h-26.9V629.3z M587.2,549.1h20.6c22.5,0,33.8-11,33.8-32.8
		c-0.3-10.2-3.8-17.8-10.5-22.6c-6.7-4.7-15.2-7.2-25.4-7.2h-18.5V549.1z M555.7,475.6h69c8.6,0,16.7,1.8,24.1,5.4
		c7.4,3.6,13.3,8.7,17.7,15.2c4.3,6.5,6.5,14,6.5,22.3c0,9.4-2.7,17.2-8.2,23.5c-5.5,6.3-12.5,10.4-21,12.3v0.5
		c12.1,2.4,21.1,7.4,26.9,14.9c5.8,7.6,8.8,16,8.8,25.2c0,9.1-2.1,17.1-6.2,23.8c-4.1,6.8-10.1,12.1-17.9,15.8
		c-7.8,3.7-17,5.6-27.4,5.6h-72.1V475.6z M325,475.6h34.5l47.7,111.5l44.6-111.5h32.3v164.6h-31V507.9h-0.6l-54.4,136.9h-0.5
		l-58.7-138.5h-0.5v133.9H325V475.6z M234.2,481.4c-10.5,0-19.4,2.5-26.8,7.4c-7.4,4.9-13.2,13-17.5,24.4
		c-4.2,11.4-6.6,26.5-7.1,45.2c0,21.8,4.1,39.8,12.2,54.1c8.1,14.3,19.7,21.6,35.1,21.8c1.7-0.3,3.8-0.5,6.4-0.5
		c10.4-1.1,18.9-5.3,25.6-12.4c6.7-7.2,11.5-16.2,14.6-27.1c3-10.9,4.5-22.7,4.5-35.5c-0.2-13.5-1.7-25.9-4.4-37.3
		c-2.7-11.4-7.5-20.9-14.4-28.5C255.3,485.5,246,481.6,234.2,481.4z M235.5,471c18.3,0.8,33.3,5.8,45.1,15.1
		c11.7,9.3,20.2,20.1,25.5,32.5c5.3,12.4,8.2,24,8.6,34.7c0,15.4-2.4,28.9-7.1,40.5c-4.8,11.6-11.2,21.2-19.2,28.7
		c-8,7.5-16.6,13.1-25.9,16.7c-9.3,3.6-18.6,5.4-27.7,5.6c-15.2,0-29.2-3.3-42-10.1c-12.8-6.7-23-16.4-30.7-29
		c-7.7-12.7-11.8-27.5-12.5-44.5c0-11.7,1.8-22.9,5.5-33.7c3.6-10.8,9-20.5,16.1-29c7.1-8.6,15.9-15.3,26.2-20.2
		c10.3-4.9,21.9-7.3,34.8-7.3H235.5z M32.3,629.8h20.3c20.7,0,35.8-6,45.3-18.1c9.6-12.1,14.4-28.2,14.4-48.5c0-4.6-0.1-8-0.3-10.4
		c-1.3-20-7.2-36.1-17.7-48.4C84,492.2,70.1,486,52.8,486H32.3V629.8z M0.8,475.6h54.1c29.1,0,52,9.4,68.8,28.2
		c13,14.5,19.4,33.8,19.4,57.9c0,19.3-4.5,35.3-13.6,47.8c-6.8,9.7-15.9,17.3-27.1,22.7c-11.3,5.4-25.6,8.1-42.8,8.1H0.8V475.6z"/>
	<path class="st0" d="M1279.6,709.7v4.1h-21.1c-1.5,0-2.5,0.1-3.1,0.4c-0.5,0.3-0.8,1.1-0.8,2.5v17h20.7v5.2h-20.7v18.1
		c0,1.2,0.4,2.2,1.3,2.8c0.9,0.7,2,1,3.4,1h22v4H1252c-5.8,0-8.7-3.1-8.7-9.4v-35.4c0-3.4,0.7-6,2.1-7.7s4.1-2.5,8.2-2.5H1279.6z
		 M1193.1,709.7h23.5c4.9,0,9,1.4,12.4,4.2c3.3,2.8,5,6.5,5,11.2c0,3.5-1.1,6.2-3.1,8.1c-2.1,2-5,3.5-8.8,4.7l15.1,26.9h-13.5
		l-13.9-27.7c0.7,0,1.2,0.1,1.5,0.2c3.5-0.1,6.2-1.3,8.1-3.5c2-2.2,2.9-5.1,2.9-8.7c0-3.3-1.1-6.1-3.3-8.2c-2.2-2.1-5.1-3.1-8.6-3.1
		h-6v51h-11.4V709.7z M1181.3,719.8l-4.9,3.3c-2.4-3.5-4.7-6.2-6.8-8.1c-2.1-1.9-4.7-2.9-7.7-2.9c-5.5,0-9.4,2.6-11.6,7.8
		c-2.3,5.2-3.4,10.9-3.4,17.1c0,6.1,0.9,11.3,2.7,15.4c1.8,4.2,4.2,6.9,7.1,8.3c1.9,0.8,3.6,1.3,5.3,1.4c3.3-0.1,5.9-1.3,7.7-3.6
		c1.9-2.3,2.8-5.2,2.8-8.5v-12.8h10.8v52.5h-10.8v-28.3c-4,3-8.6,4.4-13.8,4.4c-3.1,0-6.1-0.5-8.9-1.5c-5.3-1.8-9.3-5.1-12.2-9.8
		c-2.8-4.8-4.3-10.2-4.4-16.3c0.2-1.2,0.3-2.7,0.3-4.5c0.9-7.4,3.3-13.4,7.4-18c4.1-4.7,10.1-7.2,18.1-7.6
		C1168.6,708.2,1176,712.1,1181.3,719.8z M1129.1,709.7v4.1H1108c-1.5,0-2.5,0.1-3.1,0.4c-0.5,0.3-0.8,1.1-0.8,2.5v17h20.7v5.2
		h-20.7v18.1c0,1.2,0.4,2.2,1.3,2.8c0.9,0.7,2,1,3.4,1h22v4h-29.3c-5.8,0-8.7-3.1-8.7-9.4v-35.4c0-3.4,0.7-6,2.1-7.7
		c1.4-1.7,4.1-2.5,8.2-2.5H1129.1z M1066.6,673.5h11.7v83.9c0,0.3-0.1,0.7-0.2,1.2c0.1,1,0.4,1.6,0.7,1.8c0.4,0.2,1.4,0.3,3.1,0.3
		h5.8v4h-13.4c-3.4,0-5.6-0.8-6.4-2.3c-0.9-1.5-1.3-3.8-1.3-6.6V673.5z M1007.7,737.8h24.5l-12.4-30.3L1007.7,737.8z M990,764.7
		l33.8-84.9h0.3l35.3,84.9H1043l-8.5-21.7h-29l-8.3,21.7H990z M931.4,712.2c-3.5,0-6.5,1.3-8.7,3.8c-2.3,2.5-3.9,5.6-5,9.2
		c-1,3.6-1.7,7.1-1.9,10.6c0,5.7,0.7,10.3,2.1,13.8c1.2,3.5,3,6.5,5.4,8.9c2.5,2.4,5.2,3.6,8.1,3.6c2.8,0,5.2-0.8,7.2-2.4
		c2-1.6,3.6-3.7,4.8-6.3c1.2-2.6,2-5.3,2.6-8.2c0.5-2.9,0.8-5.6,0.8-8.1c0-3.4-0.5-7-1.5-10.9c-1-3.8-2.6-7.1-4.9-9.9
		C938,713.5,935.1,712.2,931.4,712.2z M902.3,737.8c0-6.3,1.2-11.6,3.7-16c2.5-4.4,5.8-7.6,9.9-9.8c4.1-2.2,8.6-3.5,13.6-3.8
		c4.2,0,8.2,0.7,11.9,2.3c3.7,1.5,7,3.5,9.8,6.1c2.8,2.6,5,5.5,6.6,8.8c1.6,3.3,2.5,6.8,2.6,10.4c0,6.6-1.3,12.3-4,16.8
		c-2.6,4.6-6.2,8-10.6,10.3c-4.4,2.2-9.2,3.4-14.4,3.4c-5-0.1-9.8-1.5-14.2-4.2c-4.5-2.7-8-6.2-10.7-10.6
		C903.8,747.1,902.4,742.6,902.3,737.8z M867.7,709.7h34.1v4.1h-11.2v51H879v-51h-11.3V709.7z M824.4,709.7h23.5
		c4.9,0,9,1.4,12.4,4.2c3.3,2.8,5,6.5,5,11.2c0,3.5-1,6.2-3.1,8.1c-2.1,2-5,3.5-8.8,4.7l15.1,26.9H855L841.1,737
		c0.7,0,1.2,0.1,1.5,0.2c3.5-0.1,6.2-1.3,8.2-3.5c1.9-2.2,2.9-5.1,2.9-8.7c0-3.3-1.1-6.1-3.3-8.2c-2.2-2.1-5.1-3.1-8.6-3.1h-6v51
		h-11.4V709.7z M788,712.2c-3.5,0-6.5,1.3-8.7,3.8c-2.3,2.5-3.9,5.6-5,9.2c-1,3.6-1.7,7.1-1.9,10.6c0,5.7,0.7,10.3,2.1,13.8
		c1.2,3.5,3,6.5,5.4,8.9c2.5,2.4,5.2,3.6,8.1,3.6c2.8,0,5.2-0.8,7.2-2.4c2-1.6,3.6-3.7,4.8-6.3c1.2-2.6,2-5.3,2.6-8.2
		c0.5-2.9,0.8-5.6,0.8-8.1c0-3.4-0.5-7-1.5-10.9c-1-3.8-2.6-7.1-4.9-9.9C794.6,713.5,791.6,712.2,788,712.2z M758.9,737.8
		c0-6.3,1.2-11.6,3.7-16c2.5-4.4,5.8-7.6,9.9-9.8c4.1-2.2,8.6-3.5,13.6-3.8c4.2,0,8.2,0.7,11.9,2.3c3.7,1.5,7,3.5,9.8,6.1
		c2.8,2.6,5,5.5,6.6,8.8c1.6,3.3,2.5,6.8,2.6,10.4c0,6.6-1.3,12.3-4,16.8c-2.6,4.6-6.2,8-10.6,10.3c-4.4,2.2-9.2,3.4-14.4,3.4
		c-5-0.1-9.8-1.5-14.2-4.2c-4.5-2.7-8-6.2-10.7-10.6C760.3,747.1,758.9,742.6,758.9,737.8z M714.4,686.1v39h7.6
		c8.1,0,13.6-2,16.4-5.9c2.8-3.9,4.2-9,4.2-15.3c-0.1-3.4-0.8-6.5-2.2-9.1c-1.3-2.6-3.5-4.7-6.6-6.4c-3-1.6-7-2.4-11.8-2.4H714.4z
		 M698.8,682.1h34.7c3.3,0,6.3,0.5,9.2,1.5c2.9,1,5.5,2.5,7.7,4.5c2.2,2,4,4.4,5.4,7.1c1.3,2.8,2.1,5.9,2.3,9.4
		c0.1,0.7,0.1,1.7,0.1,2.9c0,4.7-1,8.8-2.9,12.1c-2,3.3-5.2,5.9-9.8,7.8c-4.6,1.8-10.7,2.8-18.3,2.8h-12.9v34.4h-15.5V682.1z
		 M659.9,709.7v4.1h-21.1c-1.5,0-2.5,0.1-3.1,0.4c-0.5,0.3-0.8,1.1-0.8,2.5v17h20.7v5.2H635v18.1c0,1.2,0.4,2.2,1.3,2.8
		c0.9,0.7,2,1,3.4,1h22v4h-29.3c-5.8,0-8.7-3.1-8.7-9.4v-35.4c0-3.4,0.7-6,2.1-7.7c1.4-1.7,4.1-2.5,8.2-2.5H659.9z M599.1,673.5
		h11.6v91.2h-20.3c-6.3,0-11.6-1.3-16-3.8c-4.4-2.5-7.7-6-10-10.6c-2.2-4.5-3.3-9.8-3.3-15.8c0.1-3.4,0.8-6.5,2-9.6
		c1.3-3,3.1-5.7,5.6-8.1c2.5-2.3,5.5-4.1,9-5.4c3.5-1.3,7.6-1.9,12.2-1.9h9.3V673.5z M599.1,713.7h-8c-11,0-16.6,7.8-16.6,23.3
		c0,7.4,1.6,13.1,4.9,17.4c3.3,4.2,7.8,6.3,13.5,6.3h6.2V713.7z"/>
	<path class="st1" d="M348.8,17.8h-41.5C195.8,79.3,151.1,125.5,144.8,148.4c-0.5,1.8-0.8,3.6-0.8,5.2
		c-0.9,24.3,46.4,24.4,70.1,25.4c57.9,2.5,105.3,6.2,55.2,63.4C237.9,278.3,168.7,338.3,31.9,427h147.3
		C733.3-55-69.3,294.4,348.8,17.8z"/>
	<path class="st0" d="M136.8,344.9C67.5,302.7,17.5,243.5,8.9,184.6C-5.1,88.8,95.7,29,233.2,51.1c-1.8,1.3-3.5,2.6-5.2,3.8
		C107.8,38.7,21,92.4,33.3,177.3c8.2,56.2,57.9,112.7,125.8,151.1C152.1,333.7,144.6,339.2,136.8,344.9z"/>
	<path class="st0" d="M292.9,65.5c112.9,36.3,205.3,119,217.3,201.1c14,96-87.2,155.9-225.2,133.3c-17-2.8-33.8-6.7-50.2-11.6
		c8-7.2,15.6-14.2,22.8-21c8.6,2.1,17.3,3.9,26.1,5.3c125.2,20.5,217-33.8,204.3-120.9c-10.9-75-95.9-150.6-199.4-183.1
		C290,67.6,291.4,66.6,292.9,65.5z"/>
</g>
</svg>
